<?xml version="1.0" encoding="utf-8"?>
<!-- Generator: Adobe Illustrator 26.0.2, SVG Export Plug-In . SVG Version: 6.00 Build 0)  -->
<svg version="1.1" id="Layer_1" xmlns="http://www.w3.org/2000/svg" xmlns:xlink="http://www.w3.org/1999/xlink" x="0px" y="0px"
	 viewBox="0 0 512 512" style="enable-background:new 0 0 512 512;" xml:space="preserve">
<style type="text/css">
	.st0{fill:#259EC0;}
	.st1{fill:#4EC4E3;}
</style>
<g>
	<path class="st0" d="M388.4,365.6c7.3,17.5-4.2,35.3-23.2,36.8c-18,1.5-35.8-9.8-44.2-25.3c-8.5-15.6-8.5-35.1-0.9-51
		c9-18.7,27.5-29.6,47.9-31.2c44.6-3.4,82.6,31.3,88.9,74.4c6.5,43.9-20.2,85.9-60.8,102.3c-35.4,14.3-77,7.8-108-13.8
		c-37.3-25.9-55.9-70.5-62.5-114.2c-6.8-45.5-0.1-91.8-6-137.4c-6-46.3-28.7-86.3-64.8-115.9C126,66.6,92.7,53,56,47.5
		c81.4,0.7,158.2,52.7,182.8,131.8c13.7,44.1,10.9,90.4,15.2,135.8c4,42.2,17.2,89.9,54.1,115.3c28.9,19.9,69.9,21.7,97.5-1.4
		c30.3-25.3,32.6-75.7,0.3-100.5c-14-10.7-33.8-16.4-51-11c-18.8,5.9-28.9,26.2-25.9,45.1c2.7,16.9,16.7,31.4,34,33.3
		C380.9,398,392.7,382.3,388.4,365.6z"/>
	<path class="st1" d="M399,195.2c-12.9,12.2-34.3,10.5-48,0.4c-17.6-13-18.5-38.4-6.8-55.7c23-33.9,74.8-21.9,95.9,7.1
		c24.1,33.3,15.2,79.6-15.9,105.1c-34.3,28.1-86,24.1-118.4-4.9c-23.7-21.2-33.9-52.2-44.1-81.3c-10.4-29.5-24.2-56-46.4-78.5
		c-38.1-38.7-88.3-60.2-142.5-60c81.1-13.5,166.1,31.5,202.6,105.2c18.7,37.7,28.2,93.1,74.2,107c37.9,11.5,84.1-14.6,79.6-57.9
		c-1.7-16.3-11.3-32.5-26.4-39.7c-14.6-7.3-35.3-7.5-46.9,5.3c-11.1,12.3-12.1,31.9,0.7,43.5C367.9,201.1,386.1,203.8,399,195.2z"/>
	<path class="st1" d="M301.5,487c-38.6,0.5-71-22.5-92.4-53.5c-24.2-35-30.9-78.7-33.1-120.3c-4-77.4,5.9-186.2-81.6-223
		c-13.1-5.5-26.3-6.8-40.4-5.6c35.5-11.1,71.2,3.7,97.1,28.8c30.4,29.4,43.1,71.9,47.8,112.8c9.3,80.9-13.3,182.7,59.3,241.2
		C271.1,477.7,285.4,483.7,301.5,487z"/>
</g>
</svg>
