<?xml version="1.0" encoding="utf-8"?>
<!-- Generator: Adobe Illustrator 26.0.2, SVG Export Plug-In . SVG Version: 6.00 Build 0)  -->
<svg version="1.1" id="Layer_1" xmlns="http://www.w3.org/2000/svg" xmlns:xlink="http://www.w3.org/1999/xlink" x="0px" y="0px"
	 viewBox="0 0 1280 322" style="enable-background:new 0 0 1280 322;" xml:space="preserve">
<style type="text/css">
	.st0{fill:#259EC0;}
	.st1{fill:#4EC4E3;}
</style>
<g>
	<g>
		<path class="st0" d="M275,273.8c1.8-22.6,3-40.9,3.7-55c0.7-14.1,1.5-41.1,2.6-81.1c1.1-40,1.6-65,1.6-75l-0.2-15.6
			c14.9,0.2,26.4,0.2,34.5,0.2c6.5,0,15.3-0.2,26.3-0.5c11-0.3,19.4-0.4,25.3-0.5c12.2-0.1,21.4,0.5,27.8,1.7c6.4,1.2,12,3.1,17,5.7
			c5,2.6,9.2,6,12.7,10c3.4,4,6.2,9,8.4,15c2.1,6,3.2,12.5,3.2,19.7c0,5.6-0.6,11.1-2,16.4c-1.4,5.3-3.5,10.2-6.3,14.8
			c-2.9,4.6-6.2,8.6-9.9,11.9c-3.7,3.3-7.3,5.9-10.8,7.8c-3.4,1.8-8,3.8-13.6,6c5.7,1.4,10.2,2.8,13.6,4.1c3.4,1.3,6.8,3.1,10.2,5.3
			c3.4,2.2,6.6,4.9,9.5,8.2c2.9,3.3,5.3,6.7,7.2,10.4c1.8,3.7,3.3,7.9,4.3,12.5c1,4.6,1.5,9.5,1.6,14.6c0,7.1-1,13.8-3.1,20.3
			c-2.1,6.4-5.1,12.2-9.1,17.2c-4,5.1-8.6,9.3-14.1,12.7c-5.4,3.4-10.8,6-16.1,7.7c-5.3,1.7-12.3,3-21,3.8
			c-8.7,0.8-20.3,1.3-34.8,1.3l-42.3,0L275,273.8z M306.8,252.8l43.1-0.2c12.2-0.1,21.2-0.8,27-2.1c5.9-1.4,11.6-3.7,17.2-7.1
			c5.6-3.4,10-8.5,13.2-15.2c3.2-6.7,4.7-13.8,4.7-21.4c0-6.2-1.2-11.8-3.5-16.8c-2.3-5-5.6-9.3-10-12.9c-4.4-3.6-9.5-6.3-15.4-7.9
			c-5.9-1.6-14.4-2.4-25.7-2.4l-48.1,0.2L306.8,252.8z M310.2,146.3l30-0.1c13.5-0.1,22.7-0.4,27.5-1c4.9-0.6,10.1-2.1,15.8-4.4
			c5.7-2.3,10.4-5.6,14.1-10c3.7-4.4,6.4-9.2,8.1-14.3c1.7-5.2,2.5-10.3,2.5-15.5c0-5.5-1-10.4-2.8-14.6c-1.8-4.2-4.6-7.8-8.3-10.8
			c-3.7-3-8-5.1-12.9-6.4c-4.9-1.3-12.4-1.9-22.5-1.9l-49,0.2L310.2,146.3z"/>
		<path class="st0" d="M475.6,272.9c3.7-63.9,5.4-114.9,5.3-153l-0.2-15.3c5.6,0.1,10.3,0.1,14,0.1c4.2,0,8.9-0.1,14.1-0.2
			l-1.2,27.6c4.1-6.9,7.7-12.1,10.8-15.6c3.1-3.5,6.7-6.4,10.7-8.7c4-2.3,8.5-4.1,13.5-5.4c5-1.3,10.3-2,15.7-2
			c4.6,0,9.2,0.5,13.8,1.6c0.1,7.3,0.6,15.5,1.3,24.6c-6.9-1.8-13-2.8-18.4-2.7c-6.5,0-12.4,1.1-17.6,3.3c-5.2,2.2-9.9,5.5-14,9.9
			c-4.1,4.4-7.5,9.6-10.1,15.7c-2.2,4.9-3.8,11.2-5,19c-1.1,7.8-2,21.9-2.5,42.4c-0.4,14.9-0.5,30.8-0.4,47.5l0.1,11.1
			c-6-0.2-10.8-0.3-14.5-0.3C487.4,272.5,482.4,272.6,475.6,272.9z"/>
		<path class="st0" d="M732.5,245.3c-1.3,6.1-2.6,13.9-3.9,23.3c-10.6,2.7-19.8,4.5-27.6,5.5c-7.8,1-15.6,1.5-23.3,1.5
			c-13.8,0.1-26.3-1.5-37.3-4.8c-11-3.3-20.5-9-28.4-17.2c-7.9-8.2-13.6-17.6-17.1-28.2c-3.5-10.6-5.2-21.8-5.3-33.7
			c-0.1-16.5,3-31.8,9.3-46c6.2-14.1,15.7-25.3,28.3-33.4c12.6-8.1,28.7-12.3,48.2-12.3c10.1,0,19.7,1.4,28.9,4.3
			c9.2,2.9,16.9,7.3,23,13.3c6.1,5.9,10.9,13.3,14.2,22.1c3.4,8.8,5.1,18.4,5.1,28.8c0,4-0.3,7.9-0.9,11.6L619,180.6
			c-0.4,6.1-0.6,10.7-0.6,14c0.1,11.6,2.5,22.3,7.5,32.1c4.9,9.8,12.1,17.2,21.7,22.1c9.5,5,20.5,7.5,32.9,7.4
			C694.7,256.1,712.1,252.5,732.5,245.3z M620.2,166.8l99-0.5c-0.1-7-0.6-12.4-1.4-16.3c-0.8-3.9-2.3-7.9-4.4-12
			c-2.1-4.1-5-7.7-8.6-10.8c-3.6-3-7.9-5.3-13-6.9c-5-1.6-10.5-2.4-16.4-2.3c-6.3,0-12.3,0.9-18,2.7c-5.7,1.8-10.7,4.3-15.1,7.4
			c-4.4,3.1-8.1,6.8-11.1,10.9c-3,4.2-5.3,8.2-6.8,12.1C623.1,155,621.6,160.2,620.2,166.8z"/>
		<path class="st0" d="M913,244.5c-1.3,6.1-2.6,13.9-3.9,23.3c-10.6,2.7-19.8,4.5-27.6,5.5c-7.8,1-15.6,1.5-23.3,1.5
			c-13.8,0.1-26.3-1.5-37.3-4.8c-11-3.3-20.5-9-28.4-17.2c-7.9-8.2-13.6-17.6-17.1-28.2c-3.5-10.6-5.2-21.8-5.3-33.7
			c-0.1-16.5,3-31.8,9.3-46c6.2-14.1,15.7-25.3,28.3-33.4c12.6-8.1,28.7-12.3,48.2-12.3c10.1,0,19.7,1.4,28.9,4.3
			c9.2,2.9,16.9,7.3,23,13.3c6.1,5.9,10.9,13.3,14.2,22.1c3.4,8.8,5.1,18.4,5.1,28.8c0,4-0.3,7.9-0.9,11.6l-126.7,0.6
			c-0.4,6.1-0.6,10.7-0.6,14c0.1,11.6,2.5,22.3,7.5,32.1c4.9,9.8,12.1,17.2,21.7,22.1c9.5,5,20.5,7.5,32.9,7.4
			C875.2,255.3,892.5,251.6,913,244.5z M800.7,165.9l99-0.5c-0.1-7-0.6-12.4-1.4-16.3c-0.8-3.9-2.3-7.9-4.4-12
			c-2.1-4.1-5-7.7-8.6-10.8c-3.6-3-7.9-5.3-13-6.9c-5-1.6-10.5-2.4-16.4-2.3c-6.3,0-12.3,0.9-18,2.7c-5.7,1.8-10.7,4.3-15.1,7.4
			c-4.4,3.1-8,6.8-11.1,10.9c-3,4.2-5.3,8.2-6.8,12.1C803.6,154.2,802.1,159.4,800.7,165.9z"/>
		<path class="st0" d="M944.3,270.7c0.4-7,0.6-15.3,0.7-24.9l8.6-10.2c1.8-2,3.4-4,5-6l85.9-107.5c-10.2-0.1-20.9-0.1-32.2,0
			c-17.8,0.1-36.9,0.8-57.2,2.1c0.5-7.4,0.8-14.7,0.7-21.8c18.3,0,39,0,62.1-0.1c20.9-0.1,40.2-0.2,57.8-0.4
			c-0.3,4.2-0.5,8.7-0.6,13.5l-0.4,12.5c-4.2,4.9-8.2,9.8-12.1,14.7L976,250c10.7,0.4,21.2,0.6,31.4,0.5c26.7-0.1,47.5-0.8,62.6-2
			c-0.7,6-1.2,13.2-1.4,21.6c-18.2-0.1-38-0.2-59.6-0.1C982.2,270.2,960.7,270.4,944.3,270.7z"/>
		<path class="st0" d="M1244.4,242.9c-1.3,6.1-2.6,13.9-3.9,23.3c-10.6,2.7-19.8,4.5-27.6,5.5c-7.8,1-15.6,1.5-23.3,1.5
			c-13.8,0.1-26.3-1.5-37.3-4.8c-11-3.3-20.5-9-28.4-17.2c-7.9-8.2-13.6-17.6-17.1-28.2c-3.5-10.6-5.2-21.8-5.3-33.7
			c-0.1-16.5,3-31.8,9.3-46c6.2-14.1,15.7-25.3,28.3-33.4c12.6-8.1,28.7-12.3,48.2-12.3c10.1,0,19.7,1.4,28.9,4.3
			c9.2,2.9,16.9,7.3,23,13.3c6.1,5.9,10.9,13.3,14.2,22.1c3.4,8.8,5.1,18.4,5.1,28.8c0,4-0.3,7.9-0.9,11.6l-126.7,0.6
			c-0.4,6.1-0.6,10.7-0.6,14c0.1,11.6,2.5,22.3,7.5,32.1c4.9,9.8,12.1,17.2,21.7,22.1c9.5,5,20.5,7.5,32.9,7.4
			C1206.6,253.7,1224,250.1,1244.4,242.9z M1132.1,164.4l99-0.5c-0.1-7-0.6-12.4-1.4-16.3c-0.8-3.9-2.3-7.9-4.4-12
			c-2.1-4.1-5-7.7-8.6-10.8c-3.6-3-7.9-5.3-13-6.9c-5-1.6-10.5-2.4-16.4-2.3c-6.3,0-12.3,0.9-18,2.7c-5.7,1.8-10.7,4.3-15.1,7.4
			c-4.4,3.1-8.1,6.8-11.1,10.9c-3,4.2-5.3,8.2-6.8,12.1C1135,152.6,1133.5,157.9,1132.1,164.4z"/>
	</g>
	<g>
		<path class="st0" d="M209,222.5c4.1,9.8-2.4,19.8-13,20.7c-10.1,0.8-20.1-5.5-24.8-14.2c-4.8-8.7-4.8-19.7-0.5-28.6
			c5-10.5,15.4-16.6,26.9-17.5c25-1.9,46.3,17.5,49.9,41.7c3.6,24.6-11.4,48.2-34.1,57.4c-19.8,8-43.2,4.4-60.6-7.7
			c-20.9-14.5-31.4-39.6-35-64c-3.8-25.5-0.1-51.5-3.4-77.1c-3.4-25.9-16.1-48.4-36.3-65C61.9,54.8,43.2,47.1,22.6,44.1
			c45.6,0.4,88.8,29.6,102.5,73.9c7.7,24.7,6.1,50.7,8.5,76.2c2.3,23.7,9.7,50.4,30.3,64.7c16.2,11.2,39.2,12.2,54.7-0.8
			c17-14.2,18.3-42.4,0.2-56.4c-7.8-6-19-9.2-28.6-6.2c-10.5,3.3-16.2,14.7-14.5,25.3c1.5,9.5,9.4,17.6,19.1,18.7
			C204.8,240.6,211.5,231.8,209,222.5z"/>
		<path class="st1" d="M215,126.9c-7.3,6.8-19.2,5.9-26.9,0.2c-9.9-7.3-10.4-21.5-3.8-31.2c12.9-19,42-12.3,53.8,4
			c13.5,18.7,8.5,44.6-8.9,58.9c-19.2,15.8-48.2,13.5-66.4-2.7c-13.3-11.9-19-29.3-24.8-45.6c-5.8-16.6-13.6-31.4-26-44
			C90.6,44.7,62.4,32.7,32,32.8c45.5-7.5,93.1,17.6,113.6,59c10.5,21.1,15.8,52.2,41.6,60c21.2,6.4,47.2-8.2,44.6-32.5
			c-0.9-9.1-6.3-18.2-14.8-22.2c-8.2-4.1-19.8-4.2-26.3,3c-6.2,6.9-6.8,17.9,0.4,24.4C197.5,130.2,207.7,131.7,215,126.9z"/>
		<path class="st1" d="M160.3,290.6c-21.6,0.3-39.8-12.6-51.8-30c-13.6-19.6-17.4-44.1-18.5-67.5c-2.2-43.4,3.3-104.5-45.7-125.1
			c-7.3-3.1-14.8-3.8-22.6-3.1C41.4,58.6,61.4,66.9,76,81c17,16.5,24.2,40.3,26.8,63.3c5.2,45.4-7.5,102.5,33.3,135.3
			C143.3,285.3,151.2,288.7,160.3,290.6z"/>
	</g>
</g>
</svg>
